<?xml version="1.0" encoding="utf-8"?>
<svg viewBox="0 0 500 500" xmlns="http://www.w3.org/2000/svg">
  <ellipse style="paint-order: stroke; fill: rgb(255, 255, 255); stroke-width: 50px; stroke-dashoffset: -1px; transform-origin: 249.999px 249.999px;" cx="249.999" cy="249.999" rx="225" ry="225"/>
  <path style="stroke: rgb(0, 0, 0);" d="M 499.999 249.999 C 499.999 283.666 492.65 318.219 480.342 347.318 C 468.005 376.487 448.79 404.761 426.776 426.776 C 404.761 448.79 376.487 468.005 347.318 480.342 C 318.219 492.65 283.666 499.999 249.999 499.999 C 216.332 499.999 181.779 492.65 152.68 480.342 C 123.511 468.005 95.237 448.79 73.222 426.776 C 51.208 404.761 31.993 376.487 19.656 347.318 C 7.348 318.219 -0.001 283.666 -0.001 249.999 C -0.001 216.332 7.348 181.779 19.656 152.68 C 31.993 123.511 51.208 95.237 73.222 73.222 C 95.237 51.208 123.511 31.993 152.68 19.656 C 181.779 7.348 216.332 -0.001 249.999 -0.001 C 283.666 -0.001 318.219 7.348 347.318 19.656 C 376.487 31.993 404.761 51.208 426.776 73.222 C 448.79 95.237 468.005 123.511 480.342 152.68 C 492.65 181.779 499.999 216.332 499.999 249.999 Z M 434.292 172.158 C 423.859 147.49 410.123 127.28 391.42 108.578 C 372.718 89.875 352.508 76.139 327.84 65.706 C 303.102 55.242 278.464 49.999 249.999 49.999 C 221.534 49.999 239.731 453.996 214.993 464.46 C 190.325 474.893 114.042 208.257 156.865 212.161 C 199.688 216.065 178.943 259.64 168.51 284.308 C 158.046 309.046 255.606 438.046 205.762 468.847 C 181.547 483.811 169.728 432.385 180.192 457.123 C 190.625 481.791 178.66 432.687 197.363 451.389 C 216.065 470.092 136.587 436.32 161.255 446.753 C 185.993 457.217 221.534 449.999 249.999 449.999 C 278.464 449.999 303.102 444.756 327.84 434.292 C 352.508 423.859 372.718 410.123 391.42 391.42 C 410.123 372.718 423.859 352.508 434.292 327.84 C 444.756 303.102 449.999 278.464 449.999 249.999 C 449.999 221.534 444.756 196.896 434.292 172.158 Z"/>
</svg>